<?xml version="1.0" standalone="no"?>
<!DOCTYPE svg PUBLIC "-//W3C//DTD SVG 20010904//EN"
 "http://www.w3.org/TR/2001/REC-SVG-20010904/DTD/svg10.dtd">
<svg version="1.0" xmlns="http://www.w3.org/2000/svg"
 width="195.000000pt" height="259.000000pt" viewBox="0 0 195.000000 259.000000"
 preserveAspectRatio="xMidYMid meet">
<metadata>
Created by potrace 1.16, written by Peter Selinger 2001-2019
</metadata>
<g transform="translate(0.000000,259.000000) scale(0.100000,-0.100000)"
fill="#000000" stroke="none">
<path d="M1909 2568 l-11 -21 -682 7 c-553 6 -1097 7 -1175 3 -11 0 -13 -129
-7 -831 3 -457 6 -1028 5 -1268 l-1 -438 44 5 c24 2 203 7 398 10 195 3 405 8
465 10 61 3 279 7 485 10 206 2 398 7 425 10 l50 7 2 146 c1 81 4 521 7 977 5
828 10 995 27 995 5 0 9 86 9 200 0 169 -2 200 -15 200 -8 0 -20 -10 -26 -22z
m-1774 -68 c3 0 4 4 1 9 -3 5 1 12 10 15 24 9 114 7 114 -3 0 -4 -12 -6 -27
-3 -18 3 -30 -1 -40 -13 -13 -18 -14 -18 -29 1 -8 10 -12 13 -8 5 3 -7 1 -16
-5 -20 -8 -5 -7 -12 2 -26 11 -14 16 -15 22 -5 6 9 4 11 -6 6 -8 -4 -5 0 6 9
18 14 20 14 27 -2 5 -14 7 -15 8 -3 2 8 2 18 1 23 -2 11 12 8 34 -9 20 -16 20
-16 -1 -10 -16 5 -23 2 -27 -15 -4 -16 -2 -19 11 -14 13 5 14 3 6 -5 -9 -9
-17 -9 -34 0 -15 8 -20 8 -16 1 5 -7 -2 -11 -16 -11 -20 0 -24 -6 -26 -36 -2
-20 3 -42 9 -50 14 -17 21 -67 9 -59 -5 3 -6 13 -3 23 4 12 3 14 -4 7 -7 -6
-8 -34 -5 -70 4 -44 7 -53 12 -35 3 14 10 -342 14 -790 4 -448 9 -857 10 -908
3 -74 1 -89 -9 -76 -10 14 -12 7 -13 -42 0 -42 2 -52 7 -34 l8 25 8 -29 c6
-20 4 -31 -3 -34 -7 -2 -12 -12 -12 -23 0 -12 -7 -19 -20 -19 -17 0 -19 -2 -8
-14 17 -18 36 -10 41 17 2 12 5 -7 5 -43 1 -41 -2 -60 -7 -51 -5 8 -7 25 -5
38 4 22 -5 30 -19 17 -7 -8 13 -67 27 -76 6 -4 8 -10 4 -13 -3 -3 -13 1 -22
10 -9 9 -16 12 -16 7 0 -5 3 -12 7 -16 5 -4 9 -12 9 -17 1 -5 2 -13 3 -19 0
-5 7 -10 15 -10 9 0 12 -7 9 -20 -4 -16 -2 -19 11 -14 16 6 14 16 -12 46 -13
16 -6 17 109 13 145 -5 159 -7 153 -16 -2 -4 1 -9 7 -11 6 -2 -22 -4 -61 -6
-39 -1 -77 -5 -83 -9 -7 -4 -19 -6 -29 -5 -9 2 -19 -1 -21 -5 -7 -11 38 -11
49 -1 4 5 14 8 23 8 9 0 -1 -9 -22 -20 -41 -22 -82 -26 -93 -9 -4 8 -9 7 -15
-2 -6 -10 -12 -9 -28 5 -14 13 -21 15 -21 6 0 -7 -8 -10 -20 -7 -11 3 -23 1
-26 -4 -11 -18 -43 -10 -41 11 1 11 5 20 10 20 4 0 6 4 3 9 -3 5 5 12 18 15
30 7 43 36 17 36 -11 0 -22 -6 -24 -12 -4 -10 -8 -9 -16 2 -7 10 -7 17 1 21 7
4 7 13 -1 27 -14 26 -14 52 -1 52 6 0 10 -9 10 -20 0 -11 5 -20 11 -20 6 0 8
7 5 16 -5 12 -1 14 17 9 20 -5 20 -5 3 6 -40 25 -56 44 -56 69 1 24 1 24 15 6
8 -11 15 -16 15 -10 0 5 -7 17 -15 28 -19 25 -21 500 -2 490 8 -5 8 -2 0 7
-18 18 -18 83 0 73 9 -6 9 -5 0 7 -8 10 -12 56 -12 134 0 66 -3 151 -6 188 -3
42 -2 66 4 63 6 -4 6 6 0 26 -14 49 -11 58 14 58 16 0 23 6 23 19 0 16 -3 17
-14 9 -21 -18 -28 3 -24 69 5 86 5 85 3 128 -2 22 -3 49 -2 59 1 18 2 18 19 3
10 -10 22 -17 26 -17 5 0 -2 8 -14 18 -16 13 -24 33 -29 78 -9 74 -5 90 16 72
9 -7 7 3 -7 31 -21 39 -20 73 0 41 15 -24 11 -5 -5 26 -8 16 -15 42 -15 58 0
28 1 28 18 13 10 -10 22 -17 27 -17 4 0 -4 11 -19 25 -27 25 -35 65 -13 65 8
0 9 3 1 8 -15 10 -19 116 -4 107 9 -6 9 -2 1 14 -6 11 -13 80 -15 152 -4 117
-3 129 11 110 8 -12 19 -21 25 -21 6 0 5 7 -4 18 -9 9 -13 22 -11 29 2 6 -1
14 -6 18 -17 10 -13 43 7 48 9 2 24 -4 34 -15 9 -10 19 -18 23 -18z m444 16
c5 -4 12 -2 16 4 8 13 51 13 76 0 10 -6 19 -7 19 -3 0 10 101 10 118 -1 7 -4
12 -2 12 4 0 7 8 9 22 4 23 -7 55 -34 41 -34 -4 0 -1 -5 7 -10 12 -8 10 -10
-9 -10 -13 0 -21 3 -18 7 10 9 -13 33 -31 33 -12 0 -13 -3 -4 -12 8 -8 9 -15
1 -25 -9 -10 -8 -13 4 -13 9 0 19 -4 22 -10 4 -6 -2 -7 -18 -1 -17 7 -29 6
-38 -2 -11 -10 -11 -9 -1 4 9 12 9 18 -1 28 -10 11 -7 12 13 6 19 -6 22 -5 14
5 -16 16 -82 22 -90 8 -4 -7 -2 -8 4 -4 7 4 12 3 12 -3 0 -6 6 -9 13 -7 6 1 8
1 4 -2 -4 -2 -3 -10 4 -18 7 -8 9 -17 5 -21 -3 -3 -6 -1 -6 6 0 7 -4 9 -10 6
-5 -3 -18 -1 -27 5 -15 9 -14 10 7 4 19 -5 22 -3 14 5 -7 7 -22 9 -38 5 l-27
-6 22 -15 c17 -13 18 -17 8 -25 -9 -6 1 -7 29 -3 25 4 42 3 42 -3 0 -6 -88
-10 -242 -9 -213 1 -226 1 -103 7 92 4 118 7 75 9 -36 2 -78 2 -93 1 -30 -2
-60 17 -51 31 3 5 -2 16 -11 25 -19 20 -12 32 9 15 8 -7 20 -10 27 -6 8 6 7
10 -2 16 -8 5 -9 9 -4 9 6 0 24 -9 40 -20 43 -28 55 -25 20 6 l-30 25 72 -5
c40 -2 77 -7 82 -10z m-43 -137 c148 0 287 2 307 6 20 4 37 3 37 -1 0 -12 73
-11 82 1 5 6 8 6 8 -2 0 -7 -7 -16 -16 -21 -15 -8 -14 -11 6 -25 20 -14 21
-16 3 -20 -10 -3 -3 -4 14 -2 31 3 33 2 27 -23 -3 -15 -7 -32 -9 -39 -2 -6 2
-13 8 -16 8 -3 12 8 12 32 0 32 3 36 29 39 27 3 28 2 24 -27 -3 -22 0 -31 9
-31 8 0 13 6 12 13 -4 33 2 48 18 45 14 -3 17 -12 14 -48 -1 -25 0 -42 3 -39
6 5 14 42 15 68 1 8 7 11 16 7 8 -3 22 -9 30 -12 11 -4 13 -2 9 9 -3 9 -11 14
-18 11 -7 -3 -17 6 -24 20 -11 25 -7 36 12 36 6 0 5 -4 -2 -9 -18 -11 21 -36
79 -50 37 -9 38 -10 9 -7 -49 6 -52 -25 -4 -47 30 -15 34 -15 34 -1 0 8 -5 12
-10 9 -5 -3 -10 -1 -10 6 0 7 8 9 21 6 12 -3 18 -3 15 0 -14 15 16 29 51 24
l38 -5 -30 -7 -30 -7 31 -1 c21 -1 34 5 38 15 3 8 10 13 15 9 5 -3 12 -1 16 4
8 15 44 9 38 -6 -3 -7 -8 -11 -12 -9 -4 3 -12 -8 -17 -23 -10 -24 -9 -27 9
-26 23 2 37 25 15 25 -8 0 -9 3 -3 8 6 4 15 16 21 27 8 14 20 19 43 18 17 -1
29 2 26 7 -3 5 7 3 22 -5 16 -9 29 -11 31 -5 2 5 9 4 16 -3 11 -9 10 -14 -3
-25 -12 -10 -13 -12 -1 -9 8 2 21 -3 31 -11 14 -12 14 -18 3 -50 -16 -44 -17
-69 -5 -77 6 -3 8 7 5 22 -3 21 -2 24 6 13 9 -13 14 -7 11 12 0 5 5 7 12 5 7
-1 11 7 10 21 -2 13 1 21 6 18 5 -3 14 1 21 9 11 13 10 14 -2 10 -8 -3 -25 3
-38 13 l-23 19 23 23 c23 23 24 23 31 4 6 -15 8 -12 8 14 1 17 6 32 12 32 8 0
9 -11 5 -32 -3 -18 -2 -28 2 -21 4 7 17 10 30 6 21 -5 22 -11 22 -104 0 -55
-3 -99 -7 -99 -13 1 -39 24 -51 45 -11 19 -11 19 -12 1 0 -11 -3 -17 -6 -13
-3 3 -23 -1 -45 -8 -33 -12 -45 -13 -37 -2 1 1 -6 16 -16 33 -12 20 -16 39
-11 50 7 18 7 18 15 -1 10 -23 10 -22 15 20 2 17 1 22 -2 12 -2 -9 -9 -15 -14
-11 -5 3 -6 11 -3 17 4 7 3 8 -2 4 -5 -5 -9 -12 -9 -17 0 -4 -12 -19 -27 -33
l-28 -26 28 -3 c15 -2 28 -10 28 -18 1 -8 2 -22 3 -31 1 -10 12 -18 30 -21 17
-2 28 -1 26 3 -5 7 29 19 56 19 30 0 62 -39 69 -85 4 -25 4 -45 -1 -45 -4 0
-21 -13 -39 -30 -18 -16 -26 -30 -19 -30 8 0 5 -6 -7 -16 -19 -15 -19 -15 1
-6 11 5 27 7 35 5 13 -4 13 -3 0 6 -8 6 -10 11 -4 11 6 0 19 -9 29 -20 16 -18
17 -53 9 -627 -4 -334 -7 -678 -7 -764 l2 -157 -27 7 c-21 6 -28 14 -30 40 -2
22 0 31 7 26 10 -5 13 1 10 21 0 4 5 10 11 14 9 6 9 9 0 15 -7 4 -14 -1 -17
-15 -5 -19 -8 -16 -21 21 -10 30 -11 44 -3 47 6 2 11 11 11 20 0 9 9 25 20 37
15 16 18 28 12 44 -7 21 -9 20 -27 -16 -10 -21 -18 -44 -16 -50 1 -7 -4 -10
-11 -8 -9 4 -13 -7 -14 -40 -1 -25 3 -45 8 -45 6 0 8 -9 5 -20 -3 -11 -1 -23
4 -26 5 -3 9 -15 9 -27 0 -17 -10 -26 -45 -38 -44 -16 -45 -16 -46 5 -2 33 2
51 12 54 5 2 9 8 9 13 0 6 -5 7 -10 4 -15 -9 -12 0 12 41 12 21 17 34 10 30
-7 -4 -12 -2 -12 3 0 6 7 11 15 11 8 0 15 4 15 10 0 5 -7 7 -15 4 -11 -4 -13
0 -9 18 15 78 3 141 -25 123 -8 -4 -6 -11 4 -21 15 -16 21 -74 7 -74 -4 0 -9
-10 -9 -22 -1 -13 -7 -24 -14 -27 -8 -2 -7 -6 2 -12 11 -6 11 -11 1 -21 -6 -6
-12 -16 -12 -21 0 -5 7 -1 16 8 21 21 29 13 14 -15 -7 -12 -18 -19 -26 -16
-16 6 -19 -10 -4 -19 16 -10 12 -28 -5 -21 -8 3 -15 1 -15 -4 0 -6 6 -10 13
-11 9 0 9 -2 0 -6 -10 -3 -9 -9 3 -21 13 -13 14 -17 3 -21 -16 -5 -67 54 -71
83 -2 12 -9 20 -15 19 -6 -2 -21 13 -34 33 -13 21 -27 33 -35 30 -8 -3 -14 0
-14 8 0 13 -7 15 -62 19 -24 2 -33 7 -32 20 1 9 -2 17 -8 17 -5 0 -6 5 -3 11
6 9 14 129 18 252 1 20 3 37 7 37 9 0 3 204 -7 230 -9 20 -8 26 6 28 20 5 39
22 24 22 -8 0 -10 12 -6 35 3 19 1 41 -5 48 -17 20 115 93 140 78 14 -8 16 -8
12 3 -3 8 3 19 13 25 14 7 20 23 22 57 1 27 7 54 12 60 6 7 6 13 0 16 -5 2 -6
47 -1 118 5 63 9 134 9 157 l1 42 -45 -26 c-25 -13 -43 -29 -40 -33 3 -5 0
-12 -6 -16 -8 -5 -9 -3 -4 6 4 7 4 11 -1 9 -5 -2 -30 -12 -56 -23 -30 -12 -45
-23 -41 -31 2 -8 12 -11 21 -8 14 4 14 3 3 -5 -14 -10 -51 4 -51 19 0 4 -10 5
-21 2 -21 -6 -21 -4 5 40 17 28 23 48 16 52 -5 3 -10 1 -10 -4 0 -6 -7 -11
-15 -11 -9 0 -12 6 -9 15 4 10 0 15 -11 15 -9 0 -14 -4 -11 -9 7 -10 -13 -9
-30 1 -7 5 -11 -5 -12 -27 -1 -20 -6 -44 -12 -55 -12 -22 -5 -44 11 -35 5 4 9
2 9 -4 0 -5 -5 -13 -10 -16 -18 -11 -11 -23 17 -28 16 -3 32 0 36 6 6 8 7 7 4
-3 -2 -9 -15 -15 -31 -15 -19 1 -28 -5 -32 -21 -3 -12 -16 -26 -29 -32 -17 -8
-22 -17 -19 -34 5 -20 4 -21 -6 -5 -14 22 -33 22 -54 -2 -17 -19 -17 -20 13
-36 17 -8 31 -18 31 -21 0 -2 -9 0 -21 6 -22 12 -49 -1 -49 -25 0 -8 -8 -11
-19 -8 -18 5 -18 7 6 55 25 51 30 55 73 62 14 3 27 5 29 5 2 1 -2 8 -9 16 -9
11 -9 22 0 50 7 20 14 34 16 32 3 -2 0 -16 -5 -31 -8 -20 -7 -26 3 -26 7 0 19
7 26 15 9 11 9 15 1 15 -8 0 -9 5 -1 19 7 14 7 22 -1 26 -13 8 -49 -23 -49
-42 0 -8 -4 -12 -9 -8 -6 3 -15 -4 -21 -15 -11 -21 -12 -21 -43 9 -35 36 -65
43 -45 12 6 -10 24 -26 40 -35 15 -10 28 -22 28 -27 0 -6 -4 -8 -9 -4 -5 3
-12 1 -16 -5 -4 -6 -10 -8 -15 -5 -5 3 -13 -2 -18 -12 -15 -26 -42 1 -42 41 0
17 -7 42 -16 54 -9 13 -13 26 -10 30 4 3 41 19 83 34 62 23 79 25 91 15 13
-10 15 -9 10 4 -4 9 2 20 14 28 16 10 17 15 7 27 -10 12 -10 15 2 12 11 -2 14
9 15 47 0 28 2 55 5 60 4 11 -49 75 -64 75 -5 0 -3 -7 4 -17 13 -15 12 -15 -7
-3 -19 12 -20 15 -7 28 7 8 11 17 7 21 -4 3 -9 0 -11 -6 -4 -10 -8 -9 -19 2
-8 8 -21 12 -29 9 -8 -4 -15 -1 -15 5 0 12 -38 15 -65 5 -13 -6 -14 -9 -3 -16
9 -6 6 -7 -10 -3 -13 4 -29 1 -38 -6 -12 -10 -13 -9 -8 5 4 11 1 16 -10 16
-12 0 -14 -5 -7 -23 7 -19 5 -23 -10 -24 -11 -1 -19 5 -19 13 0 8 -4 14 -10
14 -5 0 -7 -7 -4 -15 4 -8 1 -15 -6 -15 -7 0 -9 -8 -5 -20 5 -17 2 -19 -22
-16 -15 2 -23 2 -17 -1 17 -6 24 -51 8 -49 -8 1 -16 5 -20 8 -3 4 -12 4 -20 1
-10 -4 -12 0 -8 13 6 17 5 17 -9 -1 -17 -22 -5 -37 22 -28 12 3 11 0 -3 -11
-14 -11 -23 -13 -32 -5 -8 6 -14 7 -18 0 -15 -24 59 -40 96 -20 11 6 18 7 15
2 -3 -5 3 -14 13 -21 14 -9 21 -9 26 0 4 7 3 8 -5 4 -20 -13 -7 17 18 41 26
25 40 31 22 10 -6 -8 -7 -17 -3 -21 4 -4 0 -6 -8 -4 -8 2 -14 -4 -15 -12 -1
-32 -27 -90 -37 -84 -13 8 -3 -11 21 -41 15 -18 15 -19 -1 -6 -13 10 -18 10
-18 2 0 -7 -4 -10 -9 -7 -11 7 -24 -41 -16 -54 4 -6 2 -10 -4 -10 -6 0 -8 -7
-5 -15 4 -8 2 -15 -3 -15 -5 0 -10 -6 -10 -14 0 -8 5 -14 10 -13 5 1 12 -4 14
-12 4 -10 -1 -11 -18 -7 -21 6 -22 5 -6 -4 13 -9 22 -9 32 0 12 10 13 8 10 -9
-2 -12 0 -21 6 -21 5 0 9 -6 9 -14 0 -8 11 -17 25 -20 14 -4 25 -11 25 -16 0
-6 5 -10 11 -10 5 0 8 3 6 8 -3 4 17 8 44 9 45 2 48 1 34 -13 -10 -10 -13 -24
-9 -36 4 -15 3 -18 -7 -13 -9 6 -11 4 -6 -8 3 -9 3 -17 -1 -19 -4 -2 -26 -31
-49 -65 -39 -57 -41 -62 -23 -68 11 -3 24 -4 28 -1 5 3 17 0 26 -7 14 -10 10
-12 -23 -12 -21 0 -37 3 -34 8 2 4 -1 7 -6 7 -6 0 -11 -6 -11 -14 0 -31 -48
-5 -115 62 -27 28 -52 49 -56 47 -3 -3 -15 5 -25 18 -16 18 -16 19 -1 8 22
-17 22 -3 0 29 -10 13 -32 54 -49 90 -36 71 -60 104 -84 112 -11 4 -16 -1 -17
-13 -1 -10 6 -21 15 -24 9 -3 28 -14 41 -23 17 -14 19 -19 7 -19 -9 0 -16 4
-16 9 0 5 -5 6 -12 2 -6 -4 -8 -3 -5 3 3 5 0 10 -8 10 -8 0 3 -20 26 -47 45
-53 48 -64 17 -55 -21 5 -21 5 2 -9 l25 -16 -23 -6 c-22 -6 -21 -8 15 -24 l38
-18 -40 4 c-27 2 -32 1 -17 -4 13 -4 23 -11 22 -16 -1 -8 24 -26 67 -45 21
-10 25 -33 8 -48 -4 -4 -5 -2 -1 4 5 10 -1 11 -26 6 -40 -7 -49 -13 -20 -13
11 0 23 -4 26 -8 3 -5 -18 -7 -47 -5 -33 3 -47 1 -39 -5 7 -5 25 -7 40 -5 26
3 26 3 5 -6 -29 -13 -30 -25 -2 -16 12 4 19 3 16 -2 -3 -5 11 -8 31 -6 27 2
32 1 17 -5 -18 -8 -17 -9 7 -14 15 -3 26 -2 23 2 -3 5 110 6 125 0 3 -1 -6 -6
-20 -10 l-25 -8 28 -1 c15 -1 27 4 27 12 0 6 5 4 11 -5 7 -12 22 -18 47 -18
37 0 150 -48 185 -78 23 -20 22 -58 -2 -79 -11 -9 -17 -22 -14 -28 2 -7 -1
-16 -7 -20 -9 -6 -9 -10 1 -16 11 -7 11 -9 1 -9 -7 0 -10 -5 -7 -11 4 -6 -1
-17 -11 -25 -14 -10 -15 -13 -3 -9 9 4 16 0 16 -9 0 -8 -6 -12 -15 -8 -11 4
-13 2 -6 -9 14 -23 13 -37 -4 -44 -15 -6 -15 -8 3 -15 17 -7 18 -9 2 -9 -13
-1 -16 -7 -13 -26 3 -13 0 -27 -5 -31 -6 -3 -8 -12 -5 -20 3 -8 0 -14 -5 -14
-6 0 -9 -9 -6 -20 4 -14 -3 -26 -23 -40 -15 -11 -30 -17 -33 -14 -3 3 -8 0
-12 -7 -6 -9 0 -10 21 -5 35 8 79 39 79 55 0 6 2 10 5 9 3 -1 14 4 26 10 16 8
24 8 35 -1 7 -7 3 0 -10 16 -24 26 -17 39 7 15 9 -9 12 -8 12 4 0 21 -36 30
-51 12 -6 -8 -15 -14 -20 -14 -9 0 13 27 74 90 20 22 37 43 37 47 0 4 -4 2 -9
-5 -6 -10 -11 -9 -22 4 -8 10 -9 15 -3 11 7 -4 14 2 17 13 3 11 12 20 20 20
19 0 30 -29 17 -45 -8 -10 -8 -62 1 -85 1 -3 0 -9 -1 -15 -2 -9 -6 -58 -11
-147 -2 -29 -7 -33 -25 -20 -17 12 -67 82 -59 82 5 0 5 3 2 6 -4 4 -27 -11
-51 -34 -45 -42 -112 -68 -146 -57 -24 8 -51 60 -43 83 5 12 0 10 -17 -6 -13
-12 -27 -22 -31 -22 -5 0 -17 -21 -29 -47 -27 -61 -60 -85 -60 -43 0 21 19 28
21 8 2 -27 21 59 21 97 0 29 2 32 5 13 6 -37 28 -36 29 1 1 20 -5 32 -20 40
-14 8 -15 10 -3 6 10 -3 15 -1 12 5 -3 6 -13 10 -21 10 -8 0 -14 9 -14 19 0
11 -9 22 -20 26 -19 6 -19 7 -2 33 9 14 18 35 19 47 2 29 7 48 17 64 6 9 5 12
-2 7 -18 -11 -22 10 -5 33 21 31 35 14 23 -27 -5 -18 -6 -41 -4 -50 5 -13 4
-14 -4 -4 -7 11 -11 10 -16 -4 -3 -9 -4 -19 -1 -22 3 -3 5 0 5 7 0 7 4 10 9 7
5 -3 16 5 25 19 10 15 12 26 6 30 -6 3 -10 12 -10 18 0 7 4 6 10 -3 8 -12 10
-10 11 10 1 14 5 -6 9 -45 4 -38 7 -71 6 -72 0 0 -16 -4 -35 -6 -19 -3 -41
-13 -50 -22 -15 -15 -15 -16 1 -10 13 5 19 0 23 -17 7 -28 45 -33 57 -8 4 8 7
-4 7 -28 1 -29 -4 -44 -14 -48 -16 -7 -11 -24 7 -24 6 0 9 3 5 6 -9 9 21 36
32 30 5 -3 7 3 4 15 -4 16 -8 17 -14 7 -5 -8 -9 14 -10 57 -1 39 -3 96 -5 128
-1 31 1 55 6 52 4 -2 5 -16 2 -30 -3 -16 0 -25 8 -25 7 0 10 -8 8 -18 -3 -10
1 -23 9 -30 7 -7 10 -18 7 -24 -4 -6 -1 -9 7 -6 8 3 13 12 11 22 -2 9 3 16 10
16 10 0 9 3 -1 9 -12 8 -12 12 2 25 15 15 17 15 28 -6 11 -21 11 -22 -4 -10
-14 12 -16 10 -15 -10 1 -13 10 -34 20 -47 10 -13 16 -27 13 -31 -3 -4 3 -14
12 -21 15 -12 16 -12 8 1 -5 8 -9 26 -10 40 0 14 -5 25 -12 25 -6 0 -15 4 -20
9 -5 5 -3 6 5 2 7 -4 12 -2 12 5 0 8 4 9 13 0 29 -24 13 20 -17 47 -17 15 -38
37 -46 47 -14 19 -14 19 3 6 10 -8 28 -15 40 -15 12 -1 29 -6 37 -11 10 -5 9
-2 -3 12 -11 12 -26 19 -36 16 -11 -3 -22 0 -25 6 -4 6 5 9 25 6 24 -3 29 0
25 11 -5 12 -2 12 15 3 21 -11 21 -11 3 14 -17 24 -25 25 -86 23 -69 -2 -94
10 -35 17 27 3 26 4 -8 4 -22 0 -49 4 -60 10 -16 9 -32 3 -85 -29 -38 -24 -80
-42 -102 -44 -21 -1 -46 -5 -57 -9 -11 -3 -22 -1 -26 5 -3 5 -2 10 3 10 6 0
30 12 53 26 24 14 37 24 28 21 -9 -3 -22 -1 -30 5 -12 8 -12 9 1 5 15 -4 70
18 70 29 0 2 -9 0 -19 -6 -29 -15 -39 -12 -17 5 13 10 15 15 6 15 -8 0 -2 12
16 32 16 18 21 26 12 19 -9 -7 -23 -9 -29 -5 -7 4 -9 3 -5 -4 3 -6 -1 -18 -10
-26 -11 -12 -12 -16 -2 -16 7 0 0 -7 -16 -15 -16 -9 -36 -13 -43 -10 -8 2 -11
0 -8 -5 3 -6 -1 -13 -9 -16 -9 -3 -13 -10 -10 -15 3 -5 -2 -9 -10 -9 -9 0 -16
5 -16 10 0 6 -9 10 -21 10 -11 0 -18 4 -15 9 4 5 -3 7 -14 4 -14 -4 -20 0 -20
11 0 24 4 31 15 28 5 -2 7 0 3 4 -4 4 -3 13 4 21 10 12 7 13 -15 8 -23 -6 -26
-4 -21 9 4 10 13 15 22 11 8 -3 21 3 29 12 8 10 11 11 7 3 -7 -13 -6 -13 12 0
10 8 21 16 24 19 3 2 -8 1 -23 -1 -20 -4 -30 0 -37 13 -6 10 -18 20 -28 23
-20 7 -23 52 -7 90 6 13 4 21 -4 24 -9 3 -9 7 0 18 8 10 8 14 0 14 -8 0 -7 10
2 33 15 35 12 60 -6 51 -7 -3 -4 1 6 9 21 17 22 36 2 43 -8 4 -12 11 -8 17 4
7 0 8 -12 3 -15 -5 -16 -4 -5 9 7 8 19 15 26 15 8 0 14 7 14 16 0 10 -6 14
-15 11 -8 -4 -17 -2 -20 4 -4 5 -3 9 2 8 21 -4 31 3 42 27 14 31 8 44 -20 37
-12 -4 -18 -11 -15 -20 3 -8 1 -11 -4 -8 -6 3 -10 -1 -10 -9 0 -9 -4 -16 -9
-16 -5 0 -12 -7 -15 -16 -4 -10 -2 -13 7 -9 6 4 5 0 -4 -7 -9 -7 -20 -28 -24
-47 -6 -30 -5 -32 12 -27 13 4 20 2 20 -7 0 -8 -10 -14 -21 -13 -17 1 -23 -7
-30 -46 -5 -27 -14 -48 -19 -48 -5 0 -7 7 -3 15 3 8 1 15 -4 15 -6 0 -10 -11
-10 -25 0 -15 6 -25 15 -25 11 0 12 -5 5 -25 -12 -33 -4 -32 13 1 11 22 15 24
20 10 4 -9 2 -16 -3 -16 -6 0 -10 -7 -10 -15 0 -8 -5 -15 -11 -15 -5 0 -7 -4
-4 -10 4 -6 -8 -10 -27 -11 -26 0 -29 -2 -14 -8 31 -12 35 -41 9 -69 -13 -14
-23 -33 -23 -43 0 -11 -4 -19 -10 -19 -5 0 -10 -7 -10 -16 0 -8 -4 -12 -10 -9
-5 3 -10 2 -10 -4 0 -5 10 -13 21 -16 16 -6 18 -9 8 -15 -7 -5 -17 -7 -21 -4
-13 8 -21 -44 -9 -58 6 -7 28 -38 48 -70 21 -32 41 -54 49 -51 7 2 15 -5 19
-16 6 -20 25 -30 25 -12 0 4 24 -4 54 -18 47 -23 55 -31 60 -61 10 -60 7 -120
-6 -118 -17 4 -23 -33 -7 -43 9 -5 4 -16 -21 -39 -24 -23 -35 -28 -41 -18 -15
24 -33 -45 -30 -114 l3 -68 -36 0 c-40 0 -88 -21 -123 -53 -22 -20 -31 -47
-15 -47 4 0 18 -3 32 -6 22 -4 21 -3 -5 10 -20 10 -24 15 -12 15 9 1 17 5 17
9 0 13 60 44 76 38 7 -3 14 -2 14 3 0 10 53 13 103 5 33 -5 36 -8 25 -22 -11
-13 -11 -14 0 -8 11 7 12 4 3 -13 -6 -11 -24 -24 -39 -27 -15 -4 -35 -13 -44
-21 -15 -14 -19 -13 -35 3 -17 17 -17 17 0 11 21 -8 23 6 3 22 -18 15 -59 -7
-51 -26 2 -8 -4 -13 -15 -13 -11 0 -20 -4 -20 -10 0 -5 -16 -12 -34 -16 -21
-3 -36 -13 -38 -22 -2 -9 -5 130 -7 308 -2 179 -4 345 -6 370 -2 41 -7 1439
-6 1484 1 15 6 17 34 12 17 -3 154 -6 303 -7z m580 -498 c17 14 44 -4 44 -30
0 -9 6 -26 14 -37 13 -18 12 -20 -6 -21 -29 -3 -47 -21 -29 -32 9 -6 10 -11 2
-15 -6 -4 -11 -1 -11 6 -1 7 -9 3 -21 -11 -11 -13 -22 -21 -25 -18 -3 2 9 21
25 40 46 52 41 85 -10 63 -23 -10 -26 -18 -19 -51 5 -24 -1 -34 -17 -28 -15 5
-16 3 -5 -8 12 -13 18 -38 6 -26 -4 3 -19 0 -34 -8 -26 -13 -28 -13 -34 8 -9
33 -7 97 3 97 4 0 6 -12 4 -27 -3 -25 -1 -23 16 11 11 21 18 43 14 49 -4 6 0
8 10 4 11 -4 17 -1 17 9 0 9 -5 12 -12 8 -7 -4 -8 -3 -4 5 4 6 11 9 15 7 4 -3
13 -1 21 4 9 6 16 6 18 -1 3 -6 9 -6 18 2z m324 -167 l-25 -15 27 6 c25 5 28
2 34 -30 3 -19 1 -55 -5 -79 -6 -24 -8 -64 -5 -89 10 -73 -8 -92 -166 -171
-75 -39 -142 -72 -149 -74 -9 -3 -11 7 -6 41 4 26 3 53 -4 65 -8 15 -7 23 8
36 20 18 31 12 31 -16 0 -10 5 -18 10 -18 6 0 10 6 9 13 -1 6 -1 21 0 32 1 18
4 16 26 -10 13 -16 24 -36 25 -44 0 -8 3 -12 6 -8 7 7 -18 67 -28 67 -3 0 -4
10 -2 23 2 12 1 16 -2 9 -4 -10 -10 -7 -18 10 -6 12 -26 30 -43 39 -18 9 -30
19 -27 22 4 3 17 -1 30 -10 19 -12 27 -13 38 -3 8 6 13 17 10 24 -2 6 7 22 21
34 14 12 25 26 25 32 0 5 9 10 20 10 11 0 27 11 36 25 12 19 20 23 34 15 13
-7 24 -3 46 16 22 19 25 27 15 31 -10 4 -7 9 10 19 33 18 50 17 19 -2z m-602
-1195 c1 -8 -4 -34 -12 -59 -9 -28 -14 -37 -15 -23 -1 16 -5 21 -17 16 -13 -5
-13 -7 -2 -15 8 -5 -2 -6 -26 -2 -32 6 -42 3 -53 -12 -8 -11 -17 -15 -21 -9
-4 6 -35 11 -69 11 -48 1 -60 -1 -56 -12 6 -16 -32 -20 -42 -4 -3 6 -15 10
-26 10 -10 0 -19 -4 -19 -10 0 -5 -11 -10 -24 -10 -21 0 -23 4 -21 43 0 24 5
48 8 55 9 13 37 5 37 -10 0 -6 -7 -8 -15 -4 -8 3 -15 1 -15 -3 0 -5 7 -12 16
-15 10 -4 14 -12 10 -22 -4 -11 -1 -14 11 -12 9 2 20 17 25 35 5 18 12 34 16
37 4 2 63 6 131 8 77 2 126 7 132 14 13 16 43 11 47 -7z"/>
<path d="M391 604 c-1 -11 -10 -29 -21 -39 -20 -19 -28 -9 -10 13 5 7 3 6 -6
-2 -13 -11 -14 -18 -5 -34 17 -32 12 -39 -9 -14 -12 15 -24 21 -32 16 -8 -5
-6 2 3 17 17 25 17 25 -13 21 -22 -3 -26 -7 -17 -13 12 -8 11 -11 -1 -18 -10
-7 -21 -5 -34 7 -19 17 -19 17 0 -9 12 -18 21 -23 26 -15 12 18 10 -22 -2 -45
-7 -13 -7 -19 0 -19 5 0 10 -7 10 -15 0 -8 -4 -15 -10 -15 -5 0 -10 -5 -10
-10 0 -6 6 -10 14 -8 8 2 15 -1 15 -7 0 -5 -7 -9 -15 -7 -12 2 -11 -1 3 -18
16 -19 18 -19 25 -3 3 10 7 30 7 45 1 34 21 79 32 72 10 -6 0 -65 -12 -78 -16
-17 -10 -36 11 -36 15 0 20 7 20 26 0 14 5 34 10 45 8 14 7 19 -2 19 -8 1 -5
7 6 15 11 8 15 15 9 15 -15 0 -4 42 15 57 12 10 13 17 4 35 -10 22 -11 22 -11
2z"/>
</g>
</svg>
